<svg width="226" height="17" viewBox="0 0 226 17" fill="none" xmlns="http://www.w3.org/2000/svg">
<path d="M113.123 1L108.955 7.3548L94 6.04002L99.6387 14.367C101.232 16.2754 102.704 16.3451 105.032 14.367C105.277 16.3392 108.202 16.4641 110.426 13.9287C110.916 16.5583 113.97 16.7417 116.31 14.1479C116.8 16.5583 120.211 16.3398 122.194 13.9287C122.194 15.6818 124.906 16.0782 126.116 15.0244C127.327 13.9706 132 9.54611 132 9.54611L118.271 8.66959L113.123 1Z" fill="white" stroke="white" stroke-opacity="0.01"/>
<path d="M1 12.6216C15.4 12.2939 19.4 10.8739 23.8 10C23.8 10 25 11.9662 27.4 12.6216C29.8 13.277 35.8 12.9493 39.4 12.6216C43 12.2939 52.6 10 52.6 10C52.6 10 55 11.9662 57.4 12.6216C59.8 13.277 63.4 12.9493 69.4 12.6216C75.4 12.2939 80.2 10 80.2 10C80.2 10 81.4 12.2939 83.8 12.6216C86.2 12.9493 91 12.6216 91 12.6216" stroke="white" stroke-width="2"/>
<path d="M135 12.6216C149.4 12.2939 153.4 10.8739 157.8 10C157.8 10 159 11.9662 161.4 12.6216C163.8 13.277 169.8 12.9493 173.4 12.6216C177 12.2939 186.6 10 186.6 10C186.6 10 189 11.9662 191.4 12.6216C193.8 13.277 197.4 12.9493 203.4 12.6216C209.4 12.2939 214.2 10 214.2 10C214.2 10 215.4 12.2939 217.8 12.6216C220.2 12.9493 225 12.6216 225 12.6216" stroke="white" stroke-width="2"/>
</svg>
